PathFileType	4	(X/Y/Z)	/Users/niels/Desktop/University/Third Semester/Perception and Action/Exam/Gymnastics Motion Tracking/Code for Gym Tracking/Analyzed Data/Webcam_Backflip/id4_4_baseline_Sports2D/id4_4_baseline_Sports2D_px_person00.trc
DataRate	CameraRate	NumFrames	NumMarkers	Units	OrigDataRate	OrigDataStartFrame	OrigNumFrames
29.8125	29.8125	9	22	m	29.8125	60	160
Frame#	Time	Hip			RHip			RKnee			RAnkle			RBigToe			RSmallToe			RHeel			LHip			LKnee			LAnkle			LBigToe			LSmallToe			LHeel			Neck			Head			Nose			RShoulder			RElbow			RWrist			LShoulder			LElbow			LWrist		
		X1	Y1	Z1	X2	Y2	Z2	X3	Y3	Z3	X4	Y4	Z4	X5	Y5	Z5	X6	Y6	Z6	X7	Y7	Z7	X8	Y8	Z8	X9	Y9	Z9	X10	Y10	Z10	X11	Y11	Z11	X12	Y12	Z12	X13	Y13	Z13	X14	Y14	Z14	X15	Y15	Z15	X16	Y16	Z16	X17	Y17	Z17	X18	Y18	Z18	X19	Y19	Z19	X20	Y20	Z20	X21	Y21	Z21	X22	Y22	Z22
60	2.012578616352201	0.9492339868514529	-0.29635446259691545	0.0	0.9479528938783884	-0.29792859006402034	0.0	0.8519566105790694	-0.35387940891513203	0.0	0.8158924623708683	-0.27937511213290395	0.0	0.7896976847975267	-0.28497327409936013	0.0	0.7887898098269228	-0.2816058491670276	0.0	0.8133329801053271	-0.2639422801102797	0.0	0.9504960530552962	-0.29679143687571236	0.0	0.8631699163256014	-0.3504619136176331	0.0	0.8232911121352552	-0.27751828495606345	0.0	0.79391746004006	-0.2877431546332553	0.0	0.7996695825756491	-0.2859500717982399	0.0	0.8245164113139716	-0.260701524127344	0.0	0.988952940652992	-0.4338639078390889	0.0	1.0093827552812316	-0.49704165413691526	0.0	0.9843851434261222	-0.4759708821534528	0.0	0.9801964521311352	-0.41711601844143387	0.0	0.924912164365843	-0.3673850364394397	0.0	0.8739060657952492	-0.36573202698287355	0.0	0.9903254160723819	-0.41959388160338024	0.0	0.9348739435370279	-0.36995383641344287	0.0	0.8883910404994202	-0.36718666925290605	0.0
61	2.0461215932914043	0.9358620981696132	-0.30153290268217436	0.0	0.9340328374891029	-0.3038134591933333	0.0	0.850052867547654	-0.3836357440613203	0.0	0.7868146717674015	-0.3302025980914098	0.0	0.7653020444952957	-0.3546373694931823	0.0	0.7626274930484354	-0.34800925854007564	0.0	0.7794404050247175	-0.31548330605346026	0.0	0.9374499943000052	-0.3020119521165186	0.0	0.8584228477102801	-0.3792826938234202	0.0	0.7936732524447788	-0.32913570151887206	0.0	0.770273138025894	-0.3542625520388053	0.0	0.7750542690537925	-0.35146400219396345	0.0	0.7903156093634958	-0.31319820198448745	0.0	1.0122019130312376	-0.42478067290749116	0.0	1.049536935198977	-0.48519601939358825	0.0	1.0180104992704697	-0.4690928151848982	0.0	1.0011751992879756	-0.4117698610333968	0.0	0.932690397627468	-0.38377795447501567	0.0	0.8840809301237182	-0.4039079633524954	0.0	1.009931953828968	-0.41143561213718727	0.0	0.9428654074131533	-0.38564668453607454	0.0	0.8985730139113424	-0.4035994235187714	0.0
62	2.079664570230608	0.9225400297599893	-0.31526484904971974	0.0	0.9201878955483216	-0.3173268810535442	0.0	0.8516908150467656	-0.4150047050627626	0.0	0.7710369281615398	-0.39165977671197627	0.0	0.7592458878511128	-0.4310939547351074	0.0	0.7545823874847735	-0.4233004928514747	0.0	0.7593285683274936	-0.3798982043898978	0.0	0.9244213958604873	-0.31572142058074226	0.0	0.8568719269506598	-0.4110119005564406	0.0	0.7776061240277394	-0.39192462232793307	0.0	0.765097507480355	-0.4283384364216798	0.0	0.7680912429202479	-0.42460035456926803	0.0	0.7692608399182558	-0.37923789612197856	0.0	1.0285503289980467	-0.4144664846731305	0.0	1.0801216203089514	-0.4681566441013516	0.0	1.0439823614598451	-0.45824030212745676	0.0	1.0164078508301715	-0.4052282746196017	0.0	0.9439329495812767	-0.402900561156526	0.0	0.9055025016008783	-0.44279348399702934	0.0	1.0230254886384635	-0.40257116266467863	0.0	0.9528974389199976	-0.4040847539959265	0.0	0.9175703653647659	-0.4408241832624039	0.0
63	2.113207547169811	0.9101847886670081	-0.3371221790714218	0.0	0.9073401820382762	-0.33828627876265616	0.0	0.8554266990713628	-0.44787647630207206	0.0	0.7695706886144218	-0.45903771013741285	0.0	0.770308504027298	-0.507186548291962	0.0	0.7638899685977821	-0.500014718293067	0.0	0.754801023209307	-0.45209821732333216	0.0	0.9123469004717291	-0.33765667387478066	0.0	0.8579149095882707	-0.4451692983980509	0.0	0.7762332648450793	-0.4606441882962923	0.0	0.7771130301824991	-0.503388881017929	0.0	0.7779277754691655	-0.49900511205629217	0.0	0.7633520875071405	-0.45321653958293096	0.0	1.037256871237104	-0.4057458347378077	0.0	1.1001491761911961	-0.4490657415027885	0.0	1.0613431641713515	-0.4461112599592398	0.0	1.0247384316875472	-0.399983117830759	0.0	0.958706657809242	-0.42319184001026455	0.0	0.9370935979451412	-0.4778231748350428	0.0	1.0291829712639777	-0.3956717215632917	0.0	0.965765259864472	-0.42367568127594585	0.0	0.9448469313780065	-0.47399400589875434	0.0
64	2.1467505241090143	0.8993477742125229	-0.36644290181709827	0.0	0.8962178372218165	-0.366585304425572	0.0	0.8606131294235674	-0.4830695938676506	0.0	0.7808943102329264	-0.5276929460535059	0.0	0.7940863058160251	-0.5777702336090647	0.0	0.7864991197092499	-0.5724099414162874	0.0	0.7647054702830786	-0.526565064346719	0.0	0.9017680143063854	-0.3671719263588754	0.0	0.8613058893278664	-0.48182544725877036	0.0	0.7877163544184275	-0.5299572205279399	0.0	0.8016579673346862	-0.5739022403503738	0.0	0.8001599054959606	-0.5693093527720132	0.0	0.7715721606199282	-0.5287629184077237	0.0	1.0384528292452184	-0.40102443960441525	0.0	1.1095284680585031	-0.4308984708353055	0.0	1.070075581491185	-0.4352739371356747	0.0	1.025971438376393	-0.398447713160474	0.0	0.9762427055581732	-0.4427743862252762	0.0	0.975654575333598	-0.5047978395164187	0.0	1.0287455685437605	-0.3930235615616659	0.0	0.9813728502908653	-0.4421158446227441	0.0	0.978013162809806	-0.4979049190117339	0.0
65	2.180293501048218	0.8904637598303229	-0.40249307274362334	0.0	0.8874009608943627	-0.40195705216401734	0.0	0.8672374568066984	-0.5214809409651552	0.0	0.801180436813905	-0.5939974448843769	0.0	0.8242883611593396	-0.6406618702543659	0.0	0.8162623087416393	-0.6377211825015189	0.0	0.7851148251378853	-0.5985193173057928	0.0	0.8930432953023484	-0.4033674404521269	0.0	0.8669613715501958	-0.5212936117742653	0.0	0.8077444455026074	-0.5958128819068021	0.0	0.8320618017002813	-0.6370507326616782	0.0	0.8282826147707224	-0.632657804081374	0.0	0.7900975742408677	-0.6004960946569919	0.0	1.0328737597961617	-0.40204095939895673	0.0	1.1086663712136748	-0.416296358994382	0.0	1.0705739761814725	-0.4279592183231444	0.0	1.0207358072141626	-0.4024331872842408	0.0	0.9947505879853089	-0.46002293886412743	0.0	1.016104053959966	-0.5210250026644876	0.0	1.0224852607886812	-0.3962334894780941	0.0	0.9981145431632055	-0.4572285637756284	0.0	1.0124383615560397	-0.5088693248638771	0.0
66	2.213836477987421	0.8840277683698089	-0.4442866431354489	0.0	0.8813762237128923	-0.4435550290540876	0.0	0.8753116580569702	-0.5633524349021753	0.0	0.8251851879303213	-0.6556292837855838	0.0	0.8542705841937548	-0.6959079379874693	0.0	0.8465324275214807	-0.6955545721531526	0.0	0.8103309271374862	-0.664547355041607	0.0	0.8865834659344736	-0.44504744049342504	0.0	0.8745731652587971	-0.5636353989452413	0.0	0.8308412846039371	-0.6560558595128517	0.0	0.8615681136008109	-0.6924781043590182	0.0	0.8557209377037688	-0.6885912759388602	0.0	0.8133920941263956	-0.6651407213079905	0.0	1.0216223925174754	-0.40979342022162685	0.0	1.098460920139607	-0.4074965317533761	0.0	1.0635309368624692	-0.4258956413084201	0.0	1.010202355620982	-0.41286207644277484	0.0	1.0116312929163296	-0.4739101468427553	0.0	1.0525263830581242	-0.5259314735522477	0.0	1.0113664567114933	-0.40611008232723994	0.0	1.013048286936566	-0.46786621435054	0.0	1.0422021327181596	-0.5062120110169693	0.0
67	2.2473794549266244	0.8804265628463221	-0.4901878328994371	0.0	0.8784132555876835	-0.4896484737540594	0.0	0.8843571286279847	-0.6078832492375464	0.0	0.847680420743334	-0.7112263926324974	0.0	0.878601924230523	-0.7443726022947952	0.0	0.8717848496356971	-0.746491356687292	0.0	0.8344725622470246	-0.7225586706818623	0.0	0.8827658512558845	-0.4905345233429834	0.0	0.8833436379602811	-0.6081701500275261	0.0	0.8519389240768058	-0.709961989496194	0.0	0.8851872437551925	-0.7409206574669945	0.0	0.8776476261775754	-0.7378406281350552	0.0	0.8358021331728254	-0.7213548065650804	0.0	1.0061597940563716	-0.4244234833201552	0.0	1.0805209499187318	-0.4060008421459591	0.0	1.0502166373920685	-0.4300856012431674	0.0	0.9958966507545187	-0.4296755648908992	0.0	1.0241466130172883	-0.48415965264320615	0.0	1.0796516486356627	-0.5210635639463564	0.0	0.9965712623142068	-0.42253587524695757	0.0	1.0229491524365486	-0.4744251576795363	0.0	1.062065445270212	-0.4931709410844797	0.0
68	2.280922431865828	0.8796990592865541	-0.5375883617235697	0.0	0.8783626700910219	-0.5374989063388876	0.0	0.8933882589454345	-0.6531621574165096	0.0	0.8648537914971871	-0.7598417564585147	0.0	0.8942856687342988	-0.7865665047818269	0.0	0.8888247228595382	-0.7909413604754512	0.0	0.8530494848869687	-0.7714199924828045	0.0	0.8817173337885115	-0.5374005551371683	0.0	0.8921269187295251	-0.6531948785681393	0.0	0.8676258213973962	-0.7572381717942559	0.0	0.9007204750298121	-0.7828444411923239	0.0	0.8919572117321766	-0.7809443182840884	0.0	0.8531107754767817	-0.7688407133571082	0.0	0.9883564139494823	-0.4449624876703234	0.0	1.0573536826967787	-0.41209330371372177	0.0	1.0326901465809804	-0.44043416691801834	0.0	0.9795722867595174	-0.45166459818451743	0.0	1.0303176293028449	-0.4912385212179652	0.0	1.0942387819991986	-0.5094850019448056	0.0	0.9796589871897894	-0.44431590534978455	0.0	1.0257458083081092	-0.47858995395728565	0.0	1.069417925935068	-0.47620798526891184	0.0
